<svg width="120" height="120" viewBox="0 0 120 120" fill="none" xmlns="http://www.w3.org/2000/svg">
<path d="M73.6768 55.5557L68.4531 71.6357H51.5469L46.3223 55.5557L60 45.6172L73.6768 55.5557Z" stroke="#1E2939"/>
<path d="M87.9443 50.9199L77.2705 83.7705H42.7295L32.0547 50.9199L60 30.6172L87.9443 50.9199Z" stroke="#1E2939"/>
<path d="M102.209 46.2852L86.0869 95.9062H33.9131L17.79 46.2852L60 15.6172L102.209 46.2852Z" stroke="#1E2939"/>
<path d="M116.476 41.6494L94.9043 108.041H25.0957L3.52344 41.6494L60 0.617188L116.476 41.6494Z" stroke="#1E2939"/>
<path d="M60 1L60.0347 59.9523L116.112 41.768L60.0561 60.0182L94.6793 107.732L60 60.059L25.3207 107.732L59.9439 60.0182L3.88766 41.768L59.9653 59.9523L60 1Z" stroke="#1E2939"/>
</svg>
